<?xml version="1.0" standalone="no"?>
<!DOCTYPE svg PUBLIC "-//W3C//DTD SVG 20010904//EN"
 "http://www.w3.org/TR/2001/REC-SVG-20010904/DTD/svg10.dtd">
<svg version="1.0" xmlns="http://www.w3.org/2000/svg"
 width="331.000000pt" height="331.000000pt" viewBox="0 0 331.000000 331.000000"
 preserveAspectRatio="xMidYMid meet">
<metadata>
Created by potrace 1.11, written by Peter Selinger 2001-2013
</metadata>
<g transform="translate(0.000000,331.000000) scale(0.100000,-0.100000)"
fill="#000000" stroke="none">
<path d="M1670 3001 c-19 -4 -61 -17 -93 -29 -74 -28 -99 -28 -214 4 -71 19
-107 24 -140 19 -55 -8 -175 -69 -244 -124 -28 -23 -57 -41 -64 -41 -18 0 -26
27 -19 57 7 25 5 24 -57 -15 -92 -58 -184 -138 -236 -204 -24 -32 -52 -58 -61
-58 -29 0 -123 -60 -172 -109 -56 -56 -70 -101 -56 -178 7 -40 6 -60 -4 -80
-7 -16 -14 -46 -14 -68 -1 -38 -4 -41 -56 -67 -77 -40 -180 -111 -180 -125 0
-7 5 -35 11 -62 9 -45 8 -54 -9 -78 -27 -39 -30 -67 -21 -182 7 -96 9 -102 38
-127 34 -28 40 -61 15 -71 -13 -5 -15 -15 -10 -47 10 -66 26 -105 45 -111 33
-10 58 -49 70 -110 25 -118 84 -206 223 -331 24 -21 39 -47 47 -80 26 -100 46
-139 106 -208 90 -105 261 -216 375 -246 25 -6 53 -14 63 -16 16 -5 16 -3 -3
28 -23 38 -26 78 -7 78 7 0 38 -8 68 -17 73 -23 224 -23 304 1 33 10 89 34
125 53 58 32 75 37 151 40 104 4 222 32 305 73 33 16 128 77 210 136 82 58
178 120 214 138 61 29 72 31 170 30 111 -1 257 -26 394 -68 42 -13 76 -21 76
-16 0 8 -142 212 -176 253 -35 42 -31 57 14 57 74 0 215 -90 312 -198 27 -30
51 -54 54 -51 2 2 16 28 31 58 26 53 27 55 23 225 l-3 171 -55 130 c-135 325
-279 562 -447 736 -46 49 -73 85 -73 99 0 17 4 21 20 17 29 -7 -33 65 -157
184 -200 191 -367 320 -563 433 -170 98 -233 116 -330 97z m-361 -83 c36 -8
51 -16 51 -28 0 -10 -41 -44 -100 -84 -55 -37 -121 -87 -147 -112 l-48 -45 69
41 c90 54 284 151 369 184 160 63 266 57 432 -24 157 -77 495 -340 495 -386 0
-14 -7 -16 -47 -11 -111 14 -190 17 -223 8 -27 -7 -29 -9 -11 -10 91 -4 284
-87 391 -169 84 -64 262 -248 321 -332 46 -65 158 -258 219 -380 35 -70 100
-252 100 -282 0 -34 -26 -18 -49 30 -45 94 -175 303 -253 406 -267 356 -598
580 -892 604 l-81 7 -5 76 c-12 169 -113 274 -297 308 -76 15 -195 -20 -293
-85 -82 -54 -99 -61 -170 -67 -80 -7 -177 -37 -291 -88 -48 -22 -92 -39 -98
-39 -35 0 23 126 106 230 68 85 150 159 242 219 71 45 114 51 210 29z m-483
-129 c-4 -26 -23 -62 -54 -102 -26 -35 -69 -104 -95 -155 -56 -107 -79 -117
-102 -44 -23 75 31 171 157 279 88 76 103 79 94 22z m882 -200 c51 -22 97 -68
118 -117 16 -40 19 -129 3 -169 -14 -39 -52 -93 -64 -93 -6 0 -30 20 -54 44
-36 36 -42 49 -37 70 4 18 1 28 -11 35 -15 8 -16 13 -6 30 11 17 9 20 -17 26
-17 4 -30 13 -30 21 0 19 50 18 98 -1 l37 -15 -37 34 c-25 24 -49 36 -82 41
-40 6 -53 3 -103 -25 -66 -37 -93 -60 -71 -60 25 0 75 -44 139 -121 168 -203
196 -219 399 -230 233 -13 416 -70 575 -179 111 -78 219 -200 175 -200 -6 0
-38 11 -72 25 -34 14 -63 24 -64 22 -2 -1 33 -29 76 -61 166 -122 355 -358
436 -543 61 -141 39 -151 -58 -25 -103 134 -193 228 -292 304 -175 135 -243
157 -506 163 -201 5 -291 15 -411 45 -42 11 -80 20 -84 20 -11 0 203 -202 257
-243 63 -47 148 -72 309 -92 165 -20 239 -43 325 -104 108 -76 226 -241 171
-241 -6 0 -46 25 -87 57 -91 68 -169 106 -274 133 -68 17 -111 20 -295 20
-327 0 -445 22 -633 116 -48 24 -90 44 -93 44 -12 0 74 -107 139 -173 160
-161 364 -257 549 -257 69 0 78 -2 75 -17 -4 -24 -120 -32 -283 -21 -191 14
-362 65 -466 139 l-30 21 16 -38 c42 -102 141 -211 231 -257 62 -31 177 -67
216 -67 23 0 29 -4 26 -17 -2 -12 -20 -22 -53 -29 -194 -46 -425 45 -645 253
-39 36 -70 71 -70 78 0 7 30 25 68 39 37 15 78 34 92 42 l25 15 -30 -5 c-16
-4 -80 -9 -140 -12 -126 -8 -238 10 -331 51 l-55 24 7 -22 c4 -12 21 -42 38
-65 48 -68 61 -90 54 -97 -10 -10 -129 22 -203 55 -38 17 -91 49 -118 71 -31
27 -47 35 -47 25 0 -19 27 -104 40 -128 13 -24 13 -58 -1 -58 -10 0 -98 56
-109 70 -3 3 -25 21 -49 40 -79 61 -186 256 -168 305 4 8 18 15 31 15 20 0 27
-7 32 -28 4 -15 26 -52 48 -82 l41 -55 3 78 c2 52 7 77 15 77 7 -1 32 -19 57
-40 49 -43 61 -40 35 10 -22 43 -14 60 32 61 87 1 77 15 -28 38 -164 36 -206
37 -267 11 -64 -28 -74 -21 -70 46 3 49 4 49 58 76 30 15 72 27 93 27 74 2
361 -62 493 -109 52 -18 52 -18 70 3 77 90 136 227 127 295 l-5 40 58 11 c177
34 251 80 267 168 l6 32 -47 -29 c-57 -36 -248 -100 -317 -107 -42 -4 -60 -1
-103 21 -63 32 -69 32 -42 4 36 -39 62 -126 55 -183 -8 -59 -50 -152 -76 -165
-11 -7 -44 -5 -96 5 -95 18 -364 92 -375 103 -4 4 -10 21 -14 38 -5 26 1 37
41 82 l47 52 -26 11 c-61 28 -13 69 79 69 62 0 110 27 159 90 l27 35 -73 23
c-75 24 -101 25 -255 6 -62 -8 -123 2 -123 19 0 15 186 115 272 147 34 12 63
31 73 46 9 14 15 27 13 29 -2 2 -26 -8 -55 -22 -54 -27 -103 -26 -103 1 0 18
81 90 139 124 42 25 45 25 86 10 l43 -16 124 59 c67 32 146 66 173 75 64 20
315 32 315 15 0 -16 25 -14 40 3 19 24 160 89 220 103 65 14 129 9 188 -18z
m-1205 -101 c3 -24 9 -53 12 -65 6 -18 -3 -27 -63 -62 -93 -54 -102 -54 -102
8 0 91 8 110 59 136 70 37 87 34 94 -17z m-248 -521 c22 1 93 5 157 8 107 7
118 6 124 -10 12 -32 -9 -50 -62 -52 -27 -1 -89 -10 -139 -19 l-90 -17 -59 32
c-32 17 -67 31 -77 31 -24 0 -25 27 -1 33 9 3 37 2 62 -1 25 -4 63 -6 85 -5z
m-77 -133 c22 -15 31 -54 12 -54 -22 0 -8 -28 35 -70 60 -59 62 -98 8 -135
-46 -31 -76 -32 -103 -3 -27 29 -40 80 -40 158 0 54 3 67 20 78 11 7 20 19 20
27 0 19 20 19 48 -1z m914 -1060 c14 -3 34 -16 43 -30 24 -37 128 -110 228
-160 55 -28 87 -50 87 -60 0 -14 -10 -15 -77 -9 -204 18 -325 74 -395 184 -15
25 -28 56 -28 69 0 23 2 23 58 17 31 -3 69 -9 84 -11z m-483 -20 c32 -13 49
-30 85 -88 25 -40 75 -106 111 -146 36 -40 65 -79 65 -86 0 -55 -187 72 -267
180 -44 60 -73 116 -73 142 0 18 30 18 79 -2z"/>
<path d="M1060 2314 c-36 -14 -85 -34 -109 -46 -24 -12 -66 -23 -92 -26 -46
-4 -49 -3 -49 20 0 13 6 30 13 37 10 11 8 12 -9 3 -25 -13 -104 -98 -104 -112
0 -5 18 -10 40 -10 33 0 40 -3 40 -19 0 -11 -11 -28 -25 -39 -14 -11 -25 -23
-25 -28 0 -4 -12 -21 -27 -37 -23 -23 -24 -27 -8 -21 11 4 38 19 60 33 27 17
53 25 80 24 22 0 85 -2 140 -4 81 -3 106 0 132 14 51 28 82 64 94 113 l12 46
62 -4 c62 -4 62 -4 39 15 -34 26 -139 67 -171 67 -16 -1 -57 -12 -93 -26z m90
-93 c0 -32 -6 -44 -32 -66 -29 -25 -38 -27 -104 -23 -40 2 -76 7 -80 11 -16
16 13 42 51 45 26 2 39 9 42 22 3 11 22 25 47 33 69 24 76 22 76 -22z"/>
<path d="M1509 1915 c-3 -5 -12 -31 -19 -57 -15 -56 -68 -121 -119 -147 -20
-10 -60 -22 -88 -26 l-53 -7 0 -47 c0 -58 -12 -75 -73 -100 -60 -26 -191 -122
-214 -158 -40 -61 -6 -174 71 -238 49 -40 125 -62 243 -72 62 -4 83 -10 85
-21 3 -13 4 -13 15 0 11 12 2 22 -50 61 -84 62 -159 140 -201 211 -53 89 -50
98 37 123 40 12 89 33 110 47 44 30 51 31 106 11 l41 -14 -30 44 c-16 24 -30
50 -30 59 0 8 20 24 44 34 54 25 120 83 136 122 12 28 15 29 84 32 l71 3 -70
25 -69 25 -11 50 c-6 28 -13 46 -16 40z"/>
<path d="M710 1840 c-14 -4 -41 -15 -60 -24 l-35 -15 78 -1 77 0 -16 25 c-9
14 -17 25 -18 24 0 0 -12 -4 -26 -9z"/>
<path d="M685 1725 c-28 -6 -57 -14 -65 -17 -8 -2 30 -10 85 -16 54 -6 101 -9
103 -7 3 2 2 16 -2 30 -7 29 -36 31 -121 10z"/>
<path d="M675 1585 c74 -23 81 -23 93 -8 6 9 12 20 12 25 0 4 -42 8 -92 7
l-93 0 80 -24z"/>
</g>
</svg>
